<svg data-v-423bf9ae="" xmlns="http://www.w3.org/2000/svg" viewBox="0 0 207.33074863617196 60" class="font"><!----><!----><!----><g data-v-423bf9ae="" id="f4421f48-753a-4340-8cf6-264d063e65c3" fill="black" transform="matrix(5.802707672119141,0,0,5.802707672119141,-1.2765882015228271,-20.48355484008789)"><path d="M4.03 13.72L0.22 13.72L0.22 13.19L1.44 12.91L1.44 4.63L0.22 4.49L0.22 4.06L2.37 3.53L2.83 3.53L2.83 12.91L4.03 13.19L4.03 13.72ZM7.97 13.87L7.97 13.87Q6.31 13.87 5.53 12.94L5.53 12.94L5.53 12.94Q4.75 12.01 4.75 10.32L4.75 10.32L4.75 10.32Q4.75 8.51 5.55 7.61L5.55 7.61L5.55 7.61Q6.36 6.71 7.81 6.71L7.81 6.71L7.81 6.71Q9.20 6.71 9.85 7.35L9.85 7.35L9.85 7.35Q10.50 7.99 10.50 9.37L10.50 9.37L10.50 9.37Q10.50 9.73 10.46 10.14L10.46 10.14L6.26 10.14L6.26 10.54L6.26 10.54Q6.26 11.77 6.78 12.40L6.78 12.40L6.78 12.40Q7.31 13.03 8.27 13.03L8.27 13.03L8.27 13.03Q9.17 13.03 10.32 12.71L10.32 12.71L10.42 13.20L10.42 13.20Q9.86 13.55 9.28 13.71L9.28 13.71L9.28 13.71Q8.71 13.87 7.97 13.87L7.97 13.87ZM6.29 9.56L9.04 9.41L9.04 9.10L9.04 9.10Q9.04 8.29 8.78 7.89L8.78 7.89L8.78 7.89Q8.51 7.49 7.90 7.49L7.90 7.49L7.90 7.49Q7.06 7.49 6.70 7.97L6.70 7.97L6.70 7.97Q6.34 8.46 6.29 9.56L6.29 9.56ZM15.47 13.55L15.47 13.55Q15.06 13.66 14.39 13.76L14.39 13.76L14.39 13.76Q13.71 13.85 13.34 13.85L13.34 13.85L13.34 13.85Q12.21 13.85 12.21 12.71L12.21 12.71L12.21 7.64L11.19 7.64L11.19 7.10L12.33 6.69L12.95 5.29L13.58 5.29L13.58 6.85L15.67 6.85L15.67 7.76L13.58 7.64L13.58 12.80L15.47 13.08L15.47 13.55ZM18.16 11.59L17.71 12.92L18.70 13.20L18.70 13.72L15.79 13.72L15.79 13.22L16.80 12.92L19.42 5.15L20.31 4.97L23.11 12.92L24.12 13.20L24.12 13.72L20.82 13.72L20.82 13.20L21.67 12.95L21.20 11.59L18.16 11.59ZM20.97 10.91L19.64 7.13L18.37 10.91L20.97 10.91ZM28.13 5.15L28.13 5.15Q29.53 5.15 30.40 5.78L30.40 5.78L30.40 5.78Q31.28 6.40 31.28 7.56L31.28 7.56L31.28 7.56Q31.28 8.44 30.87 9.05L30.87 9.05L30.87 9.05Q30.46 9.66 29.80 9.96L29.80 9.96L29.80 9.96Q29.13 10.26 28.34 10.26L28.34 10.26L28.34 10.26Q27.80 10.26 27.31 10.15L27.31 10.15L27.31 12.91L28.78 13.19L28.78 13.72L24.68 13.72L24.68 13.20L25.93 12.91L25.93 5.99L24.68 5.68L24.68 5.15L28.13 5.15ZM27.31 9.56L27.31 9.56Q27.55 9.66 28.01 9.66L28.01 9.66L28.01 9.66Q28.83 9.66 29.31 9.16L29.31 9.16L29.31 9.16Q29.79 8.67 29.79 7.67L29.79 7.67L29.79 7.67Q29.79 6.76 29.35 6.30L29.35 6.30L29.35 6.30Q28.91 5.84 28.17 5.84L28.17 5.84L28.17 5.84Q27.72 5.84 27.31 5.95L27.31 5.95L27.31 9.56ZM35.95 13.72L32.09 13.72L32.09 13.20L33.33 12.91L33.33 5.96L32.09 5.67L32.09 5.15L35.95 5.15L35.95 5.67L34.72 5.96L34.72 12.91L35.95 13.20L35.95 13.72Z"></path></g><!----><!----></svg>